<svg xmlns="http://www.w3.org/2000/svg" width="334.01" height="33" viewBox="0 0 334.01 33">
  <g id="Group_808" data-name="Group 808" transform="translate(-585.994 -360.5)">
    <g id="Group_801" data-name="Group 801" transform="translate(586 361)">
      <path id="Path_33" data-name="Path 33" d="M-21863,2856c23.98-.265,26,16,56,16s32.666-16.213,56-16" transform="translate(21863 -2856)" fill="none" stroke="#0dacc5" stroke-width="1"/>
      <path id="Path_34" data-name="Path 34" d="M-21863,2856c23.98-.265,26,16,56,16s32.666-16.213,56-16" transform="translate(21975 -2856)" fill="none" stroke="#0dacc5" stroke-width="1"/>
      <path id="Path_35" data-name="Path 35" d="M-21863,2856c23.98-.265,26,16,56,16s32.666-16.213,56-16" transform="translate(22085 -2856)" fill="none" stroke="#0dacc5" stroke-width="1"/>
    </g>
    <g id="Group_802" data-name="Group 802" transform="translate(586 368.74)">
      <path id="Path_33-2" data-name="Path 33" d="M-21863,2856c23.98-.265,26,16,56,16s32.666-16.213,56-16" transform="translate(21863 -2856)" fill="none" stroke="#0dacc5" stroke-width="1"/>
      <path id="Path_34-2" data-name="Path 34" d="M-21863,2856c23.98-.265,26,16,56,16s32.666-16.213,56-16" transform="translate(21975 -2856)" fill="none" stroke="#0dacc5" stroke-width="1"/>
      <path id="Path_35-2" data-name="Path 35" d="M-21863,2856c23.98-.265,26,16,56,16s32.666-16.213,56-16" transform="translate(22085 -2856)" fill="none" stroke="#0dacc5" stroke-width="1"/>
    </g>
    <g id="Group_803" data-name="Group 803" transform="translate(586 376.997)">
      <path id="Path_33-3" data-name="Path 33" d="M-21863,2856c23.98-.265,26,16,56,16s32.666-16.213,56-16" transform="translate(21863 -2856)" fill="none" stroke="#0dacc5" stroke-width="1"/>
      <path id="Path_34-3" data-name="Path 34" d="M-21863,2856c23.98-.265,26,16,56,16s32.666-16.213,56-16" transform="translate(21975 -2856)" fill="none" stroke="#0dacc5" stroke-width="1"/>
      <path id="Path_35-3" data-name="Path 35" d="M-21863,2856c23.98-.265,26,16,56,16s32.666-16.213,56-16" transform="translate(22085 -2856)" fill="none" stroke="#0dacc5" stroke-width="1"/>
    </g>
  </g>
</svg>
